<svg xmlns="http://www.w3.org/2000/svg" xmlns:xlink="http://www.w3.org/1999/xlink" viewBox="0 0 187.26 230"><defs><style>.cls-1{mask:url(#mask);filter:url(#luminosity-noclip-7);}.cls-10,.cls-12,.cls-13,.cls-15,.cls-17,.cls-19,.cls-2,.cls-20,.cls-22,.cls-23,.cls-25,.cls-27,.cls-4,.cls-6,.cls-8{fill-rule:evenodd;}.cls-10,.cls-12,.cls-2,.cls-4,.cls-6,.cls-8{mix-blend-mode:multiply;}.cls-2{fill:url(#linear-gradient);}.cls-3{mask:url(#mask-2);filter:url(#luminosity-noclip-12);}.cls-4{fill:url(#radial-gradient);}.cls-5{mask:url(#mask-3);filter:url(#luminosity-noclip-8);}.cls-6{fill:url(#linear-gradient-2);}.cls-7{mask:url(#mask-4);filter:url(#luminosity-noclip-9);}.cls-8{fill:url(#linear-gradient-3);}.cls-9{mask:url(#mask-5);filter:url(#luminosity-noclip-10);}.cls-10{fill:url(#linear-gradient-4);}.cls-11{mask:url(#mask-6);filter:url(#luminosity-noclip-11);}.cls-12{fill:url(#linear-gradient-5);}.cls-13{fill:url(#linear-gradient-6);}.cls-14{mask:url(#mask-7);}.cls-15{fill:url(#linear-gradient-7);}.cls-16{mask:url(#mask-8);}.cls-17{fill:url(#linear-gradient-8);}.cls-18{mask:url(#mask-9);}.cls-19{fill:url(#linear-gradient-9);}.cls-20{fill:url(#linear-gradient-10);}.cls-21{mask:url(#mask-10);}.cls-22{fill:url(#linear-gradient-11);}.cls-23{fill:url(#linear-gradient-12);}.cls-24{mask:url(#mask-11);}.cls-25{fill:url(#linear-gradient-13);}.cls-26{mask:url(#mask-12);}.cls-27{fill:url(#radial-gradient-2);}.cls-28{filter:url(#luminosity-noclip-6);}.cls-29{filter:url(#luminosity-noclip-5);}.cls-30{filter:url(#luminosity-noclip-4);}.cls-31{filter:url(#luminosity-noclip-3);}.cls-32{filter:url(#luminosity-noclip-2);}.cls-33{filter:url(#luminosity-noclip);}</style><filter id="luminosity-noclip" x="0" y="-7694.57" width="107.1" height="32766" filterUnits="userSpaceOnUse" color-interpolation-filters="sRGB"><feFlood flood-color="#fff" result="bg"/><feBlend in="SourceGraphic" in2="bg"/></filter><mask id="mask" x="0" y="-7694.57" width="107.1" height="32766" maskUnits="userSpaceOnUse"><g class="cls-33"/></mask><linearGradient id="linear-gradient" x1="53.55" y1="0.03" x2="53.55" y2="168.6" gradientUnits="userSpaceOnUse"><stop offset="0" stop-color="#fff"/><stop offset="1"/></linearGradient><filter id="luminosity-noclip-2" x="69.6" y="-7694.57" width="80.28" height="32766" filterUnits="userSpaceOnUse" color-interpolation-filters="sRGB"><feFlood flood-color="#fff" result="bg"/><feBlend in="SourceGraphic" in2="bg"/></filter><mask id="mask-2" x="69.6" y="-7694.57" width="80.28" height="32766" maskUnits="userSpaceOnUse"><g class="cls-32"/></mask><radialGradient id="radial-gradient" cx="134.6" cy="140.69" r="47.62" gradientUnits="userSpaceOnUse"><stop offset="0" stop-color="gray"/><stop offset="1" stop-color="#1a1a1a"/></radialGradient><filter id="luminosity-noclip-3" x="142.15" y="-7694.57" width="0.01" height="32766" filterUnits="userSpaceOnUse" color-interpolation-filters="sRGB"><feFlood flood-color="#fff" result="bg"/><feBlend in="SourceGraphic" in2="bg"/></filter><mask id="mask-3" x="142.15" y="-7694.57" width="0.01" height="32766" maskUnits="userSpaceOnUse"><g class="cls-31"/></mask><linearGradient id="linear-gradient-2" x1="142.16" y1="191.15" x2="142.16" y2="191.15" xlink:href="#radial-gradient"/><filter id="luminosity-noclip-4" x="121.57" y="-7694.57" width="26.45" height="32766" filterUnits="userSpaceOnUse" color-interpolation-filters="sRGB"><feFlood flood-color="#fff" result="bg"/><feBlend in="SourceGraphic" in2="bg"/></filter><mask id="mask-4" x="121.57" y="-7694.57" width="26.45" height="32766" maskUnits="userSpaceOnUse"><g class="cls-30"/></mask><linearGradient id="linear-gradient-3" x1="134.79" y1="143.81" x2="134.79" y2="191.15" xlink:href="#radial-gradient"/><filter id="luminosity-noclip-5" x="60.35" y="-7694.57" width="125.28" height="32766" filterUnits="userSpaceOnUse" color-interpolation-filters="sRGB"><feFlood flood-color="#fff" result="bg"/><feBlend in="SourceGraphic" in2="bg"/></filter><mask id="mask-5" x="60.35" y="-7694.57" width="125.28" height="32766" maskUnits="userSpaceOnUse"><g class="cls-29"/></mask><linearGradient id="linear-gradient-4" x1="187.29" y1="56.78" x2="62.62" y2="35.82" xlink:href="#linear-gradient"/><filter id="luminosity-noclip-6" x="77.31" y="-7694.57" width="108.32" height="32766" filterUnits="userSpaceOnUse" color-interpolation-filters="sRGB"><feFlood flood-color="#fff" result="bg"/><feBlend in="SourceGraphic" in2="bg"/></filter><mask id="mask-6" x="77.31" y="-7694.57" width="108.32" height="32766" maskUnits="userSpaceOnUse"><g class="cls-28"/></mask><linearGradient id="linear-gradient-5" x1="178.75" y1="154.33" x2="85.27" y2="60.84" xlink:href="#linear-gradient"/><linearGradient id="linear-gradient-6" x1="93.63" x2="93.63" y2="230" gradientUnits="userSpaceOnUse"><stop offset="0.01" stop-color="#60f4a0"/><stop offset="0.5" stop-color="#0295ce"/><stop offset="1" stop-color="#0370b7"/></linearGradient><filter id="luminosity-noclip-7" x="0" y="0.03" width="107.1" height="168.57" filterUnits="userSpaceOnUse" color-interpolation-filters="sRGB"><feFlood flood-color="#fff" result="bg"/><feBlend in="SourceGraphic" in2="bg"/></filter><mask id="mask-7" x="0" y="0.03" width="107.1" height="168.57" maskUnits="userSpaceOnUse"><g class="cls-1"><path class="cls-2" d="M26.26,130.83C0,84.31,21.28-1.24,107.1.52a97.6,97.6,0,0,0-81.51,30.7C-10.53,70-7.75,131.11,29.74,168.6,29.74,168.6,38.67,152.81,26.26,130.83Z"/></g></mask><linearGradient id="linear-gradient-7" x1="53.55" y1="0.03" x2="53.55" y2="168.6" gradientUnits="userSpaceOnUse"><stop offset="0" stop-color="#bffbd9"/><stop offset="1" stop-color="#60f4a0"/></linearGradient><filter id="luminosity-noclip-8" x="142.15" y="191.15" width="0.01" height="0.01" filterUnits="userSpaceOnUse" color-interpolation-filters="sRGB"><feFlood flood-color="#fff" result="bg"/><feBlend in="SourceGraphic" in2="bg"/></filter><mask id="mask-8" x="142.15" y="191.15" width="0.01" height="0.01" maskUnits="userSpaceOnUse"><g class="cls-5"><polygon class="cls-6" points="142.16 191.15 142.15 191.15 142.15 191.15 142.16 191.15"/></g></mask><linearGradient id="linear-gradient-8" x1="142.16" y1="191.15" x2="142.16" y2="191.15" gradientUnits="userSpaceOnUse"><stop offset="0"/><stop offset="1"/></linearGradient><filter id="luminosity-noclip-9" x="121.57" y="143.81" width="26.45" height="47.34" filterUnits="userSpaceOnUse" color-interpolation-filters="sRGB"><feFlood flood-color="#fff" result="bg"/><feBlend in="SourceGraphic" in2="bg"/></filter><mask id="mask-9" x="121.57" y="143.81" width="26.45" height="47.34" maskUnits="userSpaceOnUse"><g class="cls-7"><path class="cls-8" d="M140.48,147.65a25.5,25.5,0,0,0-4.21-3.84,61.37,61.37,0,0,1-14.7,6.48h0s27.16,20.88,20.58,40.86C149.8,180.88,150.69,159.5,140.48,147.65Z"/></g></mask><linearGradient id="linear-gradient-9" x1="134.79" y1="143.81" x2="134.79" y2="191.15" xlink:href="#linear-gradient-8"/><linearGradient id="linear-gradient-10" x1="184.44" y1="68.68" x2="36.48" y2="68.68" xlink:href="#linear-gradient-6"/><filter id="luminosity-noclip-10" x="60.35" y="22.36" width="125.28" height="55.14" filterUnits="userSpaceOnUse" color-interpolation-filters="sRGB"><feFlood flood-color="#fff" result="bg"/><feBlend in="SourceGraphic" in2="bg"/></filter><mask id="mask-10" x="60.35" y="22.36" width="125.28" height="55.14" maskUnits="userSpaceOnUse"><g class="cls-9"><path class="cls-10" d="M167,50.57C145.52,16.31,88.37,11,60.35,47.08A62,62,0,0,1,161.5,67.48c6,12,19.46,12.88,24.13,4.42h0S181.7,74,167,50.57Z"/></g></mask><linearGradient id="linear-gradient-11" x1="187.29" y1="56.78" x2="62.62" y2="35.82" gradientUnits="userSpaceOnUse"><stop offset="0" stop-color="#a0f8c6"/><stop offset="1" stop-color="#60f4a0"/></linearGradient><linearGradient id="linear-gradient-12" x1="125.65" y1="190.48" x2="125.65" y2="62.5" xlink:href="#linear-gradient-6"/><filter id="luminosity-noclip-11" x="77.31" y="59.75" width="108.32" height="118.56" filterUnits="userSpaceOnUse" color-interpolation-filters="sRGB"><feFlood flood-color="#fff" result="bg"/><feBlend in="SourceGraphic" in2="bg"/></filter><mask id="mask-11" x="77.31" y="59.75" width="108.32" height="118.56" maskUnits="userSpaceOnUse"><g class="cls-11"><path class="cls-12" d="M87.18,101.54c15.71,10.28,45.77,4.44,68.89,19.13,14.37,9.14,18.17,38.4-1.07,57.64l11.38-11.38c16.93-17,26.4-41.78,12.67-59.6-9.06-11.75-20.42-13.82-51.42-18C93.63,84.67,86,71.82,86,59.75,86,59.75,65.67,87.46,87.18,101.54Z"/></g></mask><linearGradient id="linear-gradient-13" x1="178.75" y1="154.33" x2="85.27" y2="60.84" xlink:href="#linear-gradient-11"/><filter id="luminosity-noclip-12" x="69.6" y="109.21" width="80.28" height="81.94" filterUnits="userSpaceOnUse" color-interpolation-filters="sRGB"><feFlood flood-color="#fff" result="bg"/><feBlend in="SourceGraphic" in2="bg"/></filter><mask id="mask-12" x="69.6" y="109.21" width="80.28" height="81.94" maskUnits="userSpaceOnUse"><g class="cls-3"><path class="cls-4" d="M144.51,188.8h0c8.94-14.1,5.65-33.88-2.06-42.84-7.14-8.28-18.24-10.91-30-13.7-15.25-3.61-33.55-6.67-42.86-23,.07.13.12.26.19.39,17.06,30.47,55.16,20,70.69,38.05,10.21,11.85,9.32,33.23,1.67,43.5Z"/></g></mask><radialGradient id="radial-gradient-2" cx="134.6" cy="140.69" r="47.62" gradientUnits="userSpaceOnUse"><stop offset="0" stop-color="#fff"/><stop offset="1" stop-color="#fff"/></radialGradient></defs><title>Ativo 1</title><g id="Camada_2" data-name="Camada 2"><g id="Layer_6" data-name="Layer 6"><path class="cls-13" d="M142.15,191.15c7.65-10.27,8.54-31.65-1.67-43.5a25.5,25.5,0,0,0-4.21-3.84,62,62,0,0,1-78-11.29C37,109.09,37.12,72.11,58.65,48.85A62,62,0,0,1,161.5,67.48c8.82,17.72,34,11.21,23.08-13.7a97.84,97.84,0,0,0-159-22.56C-10.53,70-7.75,131.11,29.74,168.6l57.12,57.1a14.66,14.66,0,0,0,20.74,0l34.56-34.55Z"/></g><g id="Layer_7" data-name="Layer 7"><g class="cls-14"><path class="cls-15" d="M26.26,130.83C0,84.31,21.28-1.24,107.1.52a97.6,97.6,0,0,0-81.51,30.7C-10.53,70-7.75,131.11,29.74,168.6,29.74,168.6,38.67,152.81,26.26,130.83Z"/></g></g><g id="Layer_8" data-name="Layer 8"><g class="cls-16"><polygon class="cls-17" points="142.16 191.15 142.15 191.15 142.15 191.15 142.16 191.15"/></g><g class="cls-18"><path class="cls-19" d="M140.48,147.65a25.5,25.5,0,0,0-4.21-3.84,61.37,61.37,0,0,1-14.7,6.48h0s27.16,20.88,20.58,40.86C149.8,180.88,150.69,159.5,140.48,147.65Z"/></g></g><g id="Layer_9" data-name="Layer 9"><path class="cls-20" d="M166.38,28.64a97.62,97.62,0,0,1,18.2,25.14c10.88,24.91-14.26,31.42-23.08,13.7a61.94,61.94,0,1,0-102.3,66C-10.59,61.28,93.06-44.68,166.38,28.64"/></g><g id="Layer_10" data-name="Layer 10"><g class="cls-21"><path class="cls-22" d="M167,50.57C145.52,16.31,88.37,11,60.35,47.08A62,62,0,0,1,161.5,67.48c6,12,19.46,12.88,24.13,4.42h0S181.7,74,167,50.57Z"/></g></g><g id="Layer_11" data-name="Layer 11"><path class="cls-23" d="M69.79,109.6C61.74,95,64.65,70.11,86,59.75c0,12.07,7.62,24.92,41.62,29.54,31,4.22,42.36,6.29,51.42,18,13.73,17.82,4.26,42.64-12.67,59.6l-24.23,24.22c7.65-10.27,8.54-31.65-1.67-43.5-15.53-18-53.63-7.58-70.69-38.05"/></g><g id="Layer_12" data-name="Layer 12"><g class="cls-24"><path class="cls-25" d="M87.18,101.54c15.71,10.28,45.77,4.44,68.89,19.13,14.37,9.14,18.17,38.4-1.07,57.64l11.38-11.38c16.93-17,26.4-41.78,12.67-59.6-9.06-11.75-20.42-13.82-51.42-18C93.63,84.67,86,71.82,86,59.75,86,59.75,65.67,87.46,87.18,101.54Z"/></g></g><g id="Layer_13" data-name="Layer 13"><g class="cls-26"><path class="cls-27" d="M144.51,188.8h0c8.94-14.1,5.65-33.88-2.06-42.84-7.14-8.28-18.24-10.91-30-13.7-15.25-3.61-33.55-6.67-42.86-23,.07.13.12.26.19.39,17.06,30.47,55.16,20,70.69,38.05,10.21,11.85,9.32,33.23,1.67,43.5Z"/></g></g></g></svg>